{
    "asset": {
        "copyright": "(C)2019 barre",
        "generator": "Maya2glTF V0.9.9 df3632e",
        "version": "2.0"
    },
    "scenes": [
        {
            "nodes": [
                0
            ]
        }
    ],
    "scene": 0,
    "nodes": [
        {
            "mesh": 0,
            "translation": [
                -0.6720103025436401,
                0.7473559975624085,
                -0.25408050417900088
            ],
            "name": "pCube6"
        }
    ],
    "meshes": [
        {
            "primitives": [
                {
                    "attributes": {
                        "NORMAL": 1,
                        "POSITION": 2,
                        "TANGENT": 3,
                        "TEXCOORD_0": 4
                    },
                    "indices": 0,
                    "mode": 4,
                    "material": 0
                }
            ],
            "name": "pCube6Shape"
        }
    ],
    "accessors": [
        {
            "bufferView": 0,
            "byteOffset": 0,
            "componentType": 5123,
            "count": 162,
            "max": [
                105
            ],
            "min": [
                0
            ],
            "type": "SCALAR"
        },
        {
            "bufferView": 1,
            "byteOffset": 0,
            "componentType": 5126,
            "count": 106,
            "max": [
                0.9782745242118836,
                1.0,
                1.0
            ],
            "min": [
                -0.9947063326835632,
                -0.3902318775653839,
                -1.0
            ],
            "type": "VEC3"
        },
        {
            "bufferView": 1,
            "byteOffset": 1272,
            "componentType": 5126,
            "count": 106,
            "max": [
                0.10641277581453324,
                0.004999999888241291,
                0.14000000059604646
            ],
            "min": [
                -0.10499999672174454,
                -0.004999999888241291,
                -0.14000000059604646
            ],
            "type": "VEC3"
        },
        {
            "bufferView": 2,
            "byteOffset": 0,
            "componentType": 5126,
            "count": 106,
            "max": [
                0.3902319073677063,
                1.0,
                0.04249563813209534,
                1.0
            ],
            "min": [
                -1.0,
                -1.0,
                -0.042495645582675937,
                1.0
            ],
            "type": "VEC4"
        },
        {
            "bufferView": 3,
            "byteOffset": 0,
            "componentType": 5126,
            "count": 106,
            "max": [
                0.6069374084472656,
                0.4568102359771729
            ],
            "min": [
                0.47613468766212466,
                0.3135021328926087
            ],
            "type": "VEC2"
        }
    ],
    "materials": [
        {
            "pbrMetallicRoughness": {
                "baseColorFactor": [
                    1.0,
                    1.0,
                    1.0,
                    1.0
                ],
                "baseColorTexture": {
                    "index": 0
                },
                "metallicFactor": 0.5,
                "roughnessFactor": 0.5
            },
            "emissiveFactor": [
                0.0,
                0.0,
                0.0
            ],
            "name": "GLSLShader2"
        }
    ],
    "textures": [
        {
            "sampler": 0,
            "source": 0
        }
    ],
    "images": [
        {
            "uri": "atlas.png"
        }
    ],
    "samplers": [
        {
            "magFilter": 9729,
            "minFilter": 9987,
            "wrapS": 10497,
            "wrapT": 10497
        }
    ],
    "bufferViews": [
        {
            "buffer": 0,
            "byteOffset": 5088,
            "byteLength": 324,
            "target": 34963
        },
        {
            "buffer": 0,
            "byteOffset": 1696,
            "byteLength": 2544,
            "byteStride": 12,
            "target": 34962
        },
        {
            "buffer": 0,
            "byteOffset": 0,
            "byteLength": 1696,
            "byteStride": 16,
            "target": 34962
        },
        {
            "buffer": 0,
            "byteOffset": 4240,
            "byteLength": 848,
            "byteStride": 8,
            "target": 34962
        }
    ],
    "buffers": [
        {
            "byteLength": 5412,
            "uri": "notebook0.bin"
        }
    ]
}
